<svg viewBox="0 0 32 32" xmlns="http://www.w3.org/2000/svg">
<style>
#favicon { fill: #000000; }
@media (prefers-color-scheme: dark) {
    #favicon { fill: #FFFFFF; }
}
</style>
<path id="favicon" fill-rule="evenodd" clip-rule="evenodd" d="M3.00776 26.4638L4.60646 21.5067L2.00066 21.6703L5.14062 16.6512C5.14062 16.6512 2.57357 13.4135 2 10.6269L5.14062 12.1635L4.96767 6.08326L6.63255 7.82046C6.63255 7.82046 9.18491 2.84721 12.7128 1C12.7128 1 9.66725 8.31297 10.1315 12.5463C10.1315 12.5463 12.1315 11.1771 15.801 11.1771C19.4704 11.1771 21.5132 12.5463 21.5132 12.5463C21.9774 8.31297 18.9319 1 18.9319 1C22.4598 2.84721 25.0121 7.82046 25.0121 7.82046L27.0382 6.08326L26.5041 12.1635L28.7522 10.6269C28.1786 13.4135 26.5041 16.6512 26.5041 16.6512L29.644 21.6703L27.0382 21.5067L28.6369 26.4638L25.418 25.8221C25.418 25.8221 24.2452 31 15.801 31C7.3567 31 6.22671 25.8221 6.22671 25.8221L3.00776 26.4638ZM15.2399 21.2067C14.9868 23.0888 13.1338 24.3929 11.1012 24.1195C9.06855 23.8461 7.62597 22.0988 7.87909 20.2168C8.13221 18.3347 9.98517 17.0306 12.0178 17.304C14.0504 17.5773 15.493 19.3246 15.2399 21.2067ZM20.73 24.4387C22.6101 24.0695 23.8571 22.359 23.5153 20.6181C23.1734 18.8773 21.3722 17.7654 19.4921 18.1346C17.612 18.5037 16.365 20.2142 16.7068 21.9551C17.0487 23.6959 18.8499 24.8078 20.73 24.4387Z" fill="white"/>
</svg>
